# This file uses centimeters as units for non-parametric coordinates.

mtllib Table.mtl
g default
v -1.575519 2.763171 2.950618
v 1.575519 2.763171 2.950618
v -1.575519 2.841342 2.950618
v 1.575519 2.841342 2.950618
v -1.575519 2.841342 -2.988644
v 1.575519 2.841342 -2.988644
v -1.575519 2.763171 -2.988644
v 1.575519 2.763171 -2.988644
vt 0.375000 0.000000
vt 0.625000 0.000000
vt 0.375000 0.250000
vt 0.625000 0.250000
vt 0.375000 0.500000
vt 0.625000 0.500000
vt 0.375000 0.750000
vt 0.625000 0.750000
vt 0.375000 1.000000
vt 0.625000 1.000000
vt 0.875000 0.000000
vt 0.875000 0.250000
vt 0.125000 0.000000
vt 0.125000 0.250000
vn 0.000000 0.000000 1.000000
vn 0.000000 0.000000 1.000000
vn 0.000000 0.000000 1.000000
vn 0.000000 0.000000 1.000000
vn 0.000000 1.000000 0.000000
vn 0.000000 1.000000 0.000000
vn 0.000000 1.000000 0.000000
vn 0.000000 1.000000 0.000000
vn 0.000000 0.000000 -1.000000
vn 0.000000 0.000000 -1.000000
vn 0.000000 0.000000 -1.000000
vn 0.000000 0.000000 -1.000000
vn 0.000000 -1.000000 0.000000
vn 0.000000 -1.000000 0.000000
vn 0.000000 -1.000000 0.000000
vn 0.000000 -1.000000 0.000000
vn 1.000000 0.000000 0.000000
vn 1.000000 0.000000 0.000000
vn 1.000000 0.000000 0.000000
vn 1.000000 0.000000 0.000000
vn -1.000000 0.000000 0.000000
vn -1.000000 0.000000 0.000000
vn -1.000000 0.000000 0.000000
vn -1.000000 0.000000 0.000000
s off
g pCube3 table1
usemtl standardSurface2SG
f 1/1/1 2/2/2 4/4/3 3/3/4
f 3/3/5 4/4/6 6/6/7 5/5/8
f 5/5/9 6/6/10 8/8/11 7/7/12
f 7/7/13 8/8/14 2/10/15 1/9/16
f 2/2/17 8/11/18 6/12/19 4/4/20
f 7/13/21 1/1/22 3/3/23 5/14/24
g default
v -1.508063 2.621799 2.874887
v 1.508063 2.621799 2.874887
v -1.508063 2.809778 2.874887
v 1.508063 2.809778 2.874887
v -1.508063 2.809778 -2.874887
v 1.508063 2.809778 -2.874887
v -1.508063 2.621799 -2.874887
v 1.508063 2.621799 -2.874887
v -1.508063 2.809778 -2.520312
v -1.508063 2.621799 -2.520312
v 1.508063 2.621799 -2.520312
v 1.508063 2.809778 -2.520312
v -1.508063 2.809778 2.520312
v -1.508063 2.621799 2.520312
v 1.508063 2.621799 2.520312
v 1.508063 2.809778 2.520312
v 1.153818 2.809778 2.874887
v 1.153818 2.809778 2.520312
v 1.153818 2.809778 -2.520312
v 1.153818 2.809778 -2.874887
v 1.153818 2.621799 -2.874887
v 1.153818 2.621799 -2.520312
v 1.153818 2.621799 2.520312
v 1.153818 2.621799 2.874887
v -1.153818 2.809778 2.874887
v -1.153818 2.809778 2.520312
v -1.153818 2.809778 -2.520312
v -1.153818 2.809778 -2.874887
v -1.153818 2.621799 -2.874887
v -1.153818 2.621799 -2.520312
v -1.153818 2.621799 2.520312
v -1.153818 2.621799 2.874887
v 1.447899 2.809778 2.520311
v 1.447899 2.809778 2.874887
v 1.447899 2.621799 2.874887
v 1.447899 2.621799 2.520311
v 1.447899 2.621799 -2.520311
v 1.447899 2.621799 -2.874887
v 1.447899 2.809778 -2.874887
v 1.447899 2.809778 -2.520311
v -1.447899 2.809778 2.520311
v -1.447899 2.809778 2.874887
v -1.447899 2.621799 2.874887
v -1.447899 2.621799 2.520311
v -1.447899 2.621799 -2.520311
v -1.447899 2.621799 -2.874887
v -1.447899 2.809778 -2.874887
v -1.447899 2.809778 -2.520311
v -1.153818 2.809778 2.807785
v -1.447899 2.809778 2.807785
v -1.508063 2.809778 2.807785
v -1.508063 2.621799 2.807785
v -1.447899 2.621799 2.807785
v -1.153818 2.621799 2.807785
v 1.153818 2.621799 2.807785
v 1.447899 2.621799 2.807785
v 1.508063 2.621799 2.807785
v 1.508063 2.809778 2.807785
v 1.447899 2.809778 2.807785
v 1.153818 2.809778 2.807785
v -1.153818 2.809778 -2.807785
v -1.447899 2.809778 -2.807785
v -1.508063 2.809778 -2.807785
v -1.508063 2.621799 -2.807785
v -1.447899 2.621799 -2.807785
v -1.153818 2.621799 -2.807785
v 1.153818 2.621799 -2.807785
v 1.447899 2.621799 -2.807785
v 1.508063 2.621799 -2.807785
v 1.508063 2.809778 -2.807785
v 1.447899 2.809778 -2.807785
v 1.153818 2.809778 -2.807785
v -1.447899 -0.006906 -2.807785
v -1.153818 -0.006906 -2.807785
v -1.153818 -0.006906 -2.520312
v -1.447899 -0.006906 -2.520311
v 1.153818 -0.006906 -2.807785
v 1.153818 -0.006906 -2.520312
v 1.447899 -0.006906 -2.807785
v 1.447899 -0.006906 -2.520311
v -1.447899 -0.006906 2.520311
v -1.153818 -0.006906 2.520312
v -1.153818 -0.006906 2.807785
v -1.447899 -0.006906 2.807785
v 1.153818 -0.006906 2.807785
v 1.447899 -0.006906 2.807785
v 1.153818 -0.006906 2.520312
v 1.447899 -0.006906 2.520311
v -1.447899 1.516217 -2.520311
v -1.153818 1.516217 -2.520312
v -1.153818 1.516217 -2.807785
v -1.447899 1.516217 -2.807785
v -1.447899 1.706071 -2.520311
v -1.153818 1.706071 -2.520312
v -1.153818 1.706071 -2.807785
v -1.447899 1.706071 -2.807785
v -1.447899 1.516217 2.520311
v -1.447899 1.516217 2.807785
v -1.153818 1.516217 2.807785
v -1.153818 1.516217 2.520312
v -1.447899 1.706071 2.520311
v -1.447899 1.706071 2.807785
v -1.153818 1.706071 2.807785
v -1.153818 1.706071 2.520312
v 1.153818 1.516217 2.807785
v 1.447899 1.516217 2.807785
v 1.447899 1.516217 2.520311
v 1.153818 1.516217 2.520312
v 1.153818 1.706071 2.807785
v 1.447899 1.706071 2.807785
v 1.447899 1.706071 2.520311
v 1.153818 1.706071 2.520312
v 1.153818 1.516217 -2.807785
v 1.153818 1.516217 -2.520312
v 1.447899 1.516217 -2.520311
v 1.447899 1.516217 -2.807785
v 1.153818 1.706071 -2.807785
v 1.153818 1.706071 -2.520312
v 1.447899 1.706071 -2.520311
v 1.447899 1.706071 -2.807785
vt 0.375000 0.000000
vt 0.625000 0.000000
vt 0.375000 0.250000
vt 0.625000 0.250000
vt 0.375000 0.500000
vt 0.625000 0.500000
vt 0.375000 0.750000
vt 0.625000 0.750000
vt 0.375000 1.000000
vt 0.625000 1.000000
vt 0.875000 0.000000
vt 0.875000 0.250000
vt 0.125000 0.000000
vt 0.125000 0.250000
vt 0.208333 0.250000
vt 0.375000 0.416667
vt 0.208333 0.000000
vt 0.375000 0.833333
vt 0.625000 0.833333
vt 0.791667 0.000000
vt 0.625000 0.416667
vt 0.791667 0.250000
vt 0.291667 0.250000
vt 0.375000 0.333333
vt 0.291667 0.000000
vt 0.375000 0.916667
vt 0.625000 0.916667
vt 0.708333 0.000000
vt 0.625000 0.333333
vt 0.708333 0.250000
vt 0.541667 0.250000
vt 0.541667 0.333333
vt 0.541667 0.416667
vt 0.541667 0.500000
vt 0.541667 0.750000
vt 0.541667 0.833333
vt 0.541667 0.916667
vt 0.541667 0.000000
vt 0.541667 1.000000
vt 0.458333 0.250000
vt 0.458333 0.333333
vt 0.458333 0.416667
vt 0.458333 0.500000
vt 0.458333 0.750000
vt 0.458333 0.833333
vt 0.458333 0.916667
vt 0.458333 0.000000
vt 0.458333 1.000000
vt 0.610847 0.333333
vt 0.610847 0.250000
vt 0.610847 0.000000
vt 0.610847 1.000000
vt 0.610847 0.916667
vt 0.610847 0.833333
vt 0.610847 0.750000
vt 0.610847 0.500000
vt 0.610847 0.416667
vt 0.389153 0.333333
vt 0.389153 0.250000
vt 0.389153 0.000000
vt 0.389153 1.000000
vt 0.389153 0.916667
vt 0.389153 0.833333
vt 0.389153 0.750000
vt 0.389153 0.500000
vt 0.389153 0.416667
vt 0.458333 0.265698
vt 0.389153 0.265698
vt 0.359302 0.250000
vt 0.375000 0.265698
vt 0.359302 0.000000
vt 0.375000 0.984302
vt 0.389153 0.984302
vt 0.458333 0.984302
vt 0.541667 0.984302
vt 0.610847 0.984302
vt 0.625000 0.984302
vt 0.640698 0.000000
vt 0.625000 0.265698
vt 0.640698 0.250000
vt 0.610847 0.265698
vt 0.541667 0.265698
vt 0.458333 0.484302
vt 0.389153 0.484302
vt 0.140698 0.250000
vt 0.375000 0.484302
vt 0.140698 0.000000
vt 0.375000 0.765698
vt 0.389153 0.765698
vt 0.458333 0.765698
vt 0.541667 0.765698
vt 0.610847 0.765698
vt 0.625000 0.765698
vt 0.859302 0.000000
vt 0.625000 0.484302
vt 0.859302 0.250000
vt 0.610847 0.484302
vt 0.541667 0.484302
vt 0.389153 0.765698
vt 0.458333 0.765698
vt 0.458333 0.833333
vt 0.389153 0.833333
vt 0.541667 0.833333
vt 0.541667 0.765698
vt 0.610847 0.765698
vt 0.610847 0.833333
vt 0.389153 0.916667
vt 0.458333 0.916667
vt 0.458333 0.984302
vt 0.389153 0.984302
vt 0.610847 0.984302
vt 0.541667 0.984302
vt 0.541667 0.916667
vt 0.610847 0.916667
vt 0.389153 0.833333
vt 0.458333 0.833333
vt 0.458333 0.765698
vt 0.389153 0.765698
vt 0.389153 0.833333
vt 0.458333 0.833333
vt 0.458333 0.765698
vt 0.389153 0.765698
vt 0.389153 0.916667
vt 0.389153 0.984302
vt 0.458333 0.984302
vt 0.458333 0.916667
vt 0.389153 0.916667
vt 0.389153 0.984302
vt 0.458333 0.984302
vt 0.458333 0.916667
vt 0.541667 0.984302
vt 0.610847 0.984302
vt 0.610847 0.916667
vt 0.541667 0.916667
vt 0.541667 0.984302
vt 0.610847 0.984302
vt 0.610847 0.916667
vt 0.541667 0.916667
vt 0.541667 0.765698
vt 0.541667 0.833333
vt 0.610847 0.833333
vt 0.610847 0.765698
vt 0.541667 0.765698
vt 0.541667 0.833333
vt 0.610847 0.833333
vt 0.610847 0.765698
vn 0.000000 0.000000 1.000000
vn 0.000000 0.000000 1.000000
vn 0.000000 0.000000 1.000000
vn 0.000000 0.000000 1.000000
vn 0.000000 1.000000 0.000000
vn 0.000000 1.000000 0.000000
vn 0.000000 1.000000 0.000000
vn 0.000000 1.000000 0.000000
vn 0.000000 0.000000 -1.000000
vn 0.000000 0.000000 -1.000000
vn 0.000000 0.000000 -1.000000
vn 0.000000 0.000000 -1.000000
vn 0.000000 -1.000000 0.000000
vn 0.000000 -1.000000 0.000000
vn 0.000000 -1.000000 0.000000
vn 0.000000 -1.000000 0.000000
vn 1.000000 0.000000 0.000000
vn 1.000000 0.000000 0.000000
vn 1.000000 0.000000 0.000000
vn 1.000000 0.000000 0.000000
vn -1.000000 0.000000 0.000000
vn -1.000000 0.000000 0.000000
vn -1.000000 0.000000 0.000000
vn -1.000000 0.000000 0.000000
vn -1.000000 0.000000 0.000000
vn -1.000000 0.000000 0.000000
vn -1.000000 0.000000 0.000000
vn -1.000000 0.000000 0.000000
vn 0.000000 -1.000000 0.000000
vn 0.000000 -1.000000 0.000000
vn 0.000000 -1.000000 0.000000
vn 0.000000 -1.000000 0.000000
vn 1.000000 0.000000 0.000000
vn 1.000000 0.000000 0.000000
vn 1.000000 0.000000 0.000000
vn 1.000000 0.000000 0.000000
vn 0.000000 1.000000 0.000000
vn 0.000000 1.000000 0.000000
vn 0.000000 1.000000 0.000000
vn 0.000000 1.000000 0.000000
vn -1.000000 0.000000 0.000000
vn -1.000000 0.000000 0.000000
vn 0.000000 -1.000000 0.000000
vn 0.000000 -1.000000 0.000000
vn 0.000000 -1.000000 0.000000
vn 0.000000 -1.000000 0.000000
vn 1.000000 0.000000 0.000000
vn 1.000000 0.000000 0.000000
vn 0.000000 1.000000 0.000000
vn 0.000000 1.000000 0.000000
vn 0.000000 1.000000 0.000000
vn 0.000000 1.000000 0.000000
vn 0.000000 1.000000 0.000000
vn 0.000000 1.000000 0.000000
vn 0.000000 1.000000 0.000000
vn 0.000000 1.000000 0.000000
vn 0.000000 1.000000 0.000000
vn 0.000000 1.000000 0.000000
vn 0.000000 1.000000 0.000000
vn 0.000000 1.000000 0.000000
vn 0.000000 0.000000 -1.000000
vn 0.000000 0.000000 -1.000000
vn 0.000000 0.000000 -1.000000
vn 0.000000 0.000000 -1.000000
vn 0.000000 -1.000000 0.000000
vn 0.000000 -1.000000 0.000000
vn 0.000000 -1.000000 0.000000
vn 0.000000 -1.000000 0.000000
vn 0.000000 -1.000000 0.000000
vn 0.000000 -1.000000 0.000000
vn 0.000000 -1.000000 0.000000
vn 0.000000 -1.000000 0.000000
vn 0.000000 -1.000000 0.000000
vn 0.000000 -1.000000 0.000000
vn 0.000000 0.000000 1.000000
vn 0.000000 0.000000 1.000000
vn 0.000000 0.000000 1.000000
vn 0.000000 0.000000 1.000000
vn 0.000000 1.000000 0.000000
vn 0.000000 1.000000 0.000000
vn 0.000000 1.000000 0.000000
vn 0.000000 1.000000 0.000000
vn 0.000000 1.000000 0.000000
vn 0.000000 0.000000 -1.000000
vn 0.000000 0.000000 -1.000000
vn 0.000000 -1.000000 0.000000
vn 0.000000 -1.000000 0.000000
vn 0.000000 -1.000000 0.000000
vn 0.000000 -1.000000 0.000000
vn 0.000000 -1.000000 0.000000
vn 0.000000 -1.000000 0.000000
vn 0.000000 0.000000 1.000000
vn 0.000000 0.000000 1.000000
vn 0.000000 -1.000000 0.000000
vn 0.000000 -1.000000 0.000000
vn 0.000000 -1.000000 0.000000
vn 0.000000 -1.000000 0.000000
vn 0.000000 1.000000 0.000000
vn 0.000000 1.000000 0.000000
vn 0.000000 0.000000 1.000000
vn 0.000000 0.000000 1.000000
vn 0.000000 -1.000000 0.000000
vn 0.000000 -1.000000 0.000000
vn 0.000000 -1.000000 0.000000
vn 0.000000 -1.000000 0.000000
vn 0.000000 -1.000000 0.000000
vn 0.000000 -1.000000 0.000000
vn 0.000000 0.000000 -1.000000
vn 0.000000 0.000000 -1.000000
vn 0.000000 1.000000 0.000000
vn 0.000000 1.000000 0.000000
vn 0.000000 1.000000 0.000000
vn 0.000000 -1.000000 0.000000
vn 0.000000 -1.000000 0.000000
vn 0.000000 -1.000000 0.000000
vn 0.000000 -1.000000 0.000000
vn 0.000000 -1.000000 0.000000
vn 0.000000 -1.000000 0.000000
vn 0.000000 -1.000000 0.000000
vn 0.000000 -1.000000 0.000000
vn 0.000000 1.000000 0.000000
vn 0.000000 1.000000 0.000000
vn 0.000000 1.000000 0.000000
vn -1.000000 0.000000 0.000000
vn -1.000000 0.000000 0.000000
vn 0.000000 -1.000000 0.000000
vn 0.000000 -1.000000 0.000000
vn 0.000000 -1.000000 0.000000
vn 0.000000 -1.000000 0.000000
vn 0.000000 -1.000000 0.000000
vn 0.000000 -1.000000 0.000000
vn 1.000000 0.000000 0.000000
vn 1.000000 0.000000 0.000000
vn 0.000000 1.000000 0.000000
vn 0.000000 1.000000 0.000000
vn 0.000000 1.000000 0.000000
vn 0.000000 0.000000 -1.000000
vn 0.000000 0.000000 -1.000000
vn 0.000000 0.000000 -1.000000
vn 0.000000 0.000000 -1.000000
vn 1.000000 0.000000 0.000000
vn 1.000000 0.000000 0.000000
vn 1.000000 0.000000 0.000000
vn 1.000000 0.000000 0.000000
vn 0.000002 0.000000 1.000000
vn 0.000002 0.000000 1.000000
vn 0.000002 0.000000 1.000000
vn 0.000002 0.000000 1.000000
vn -1.000000 0.000000 0.000000
vn -1.000000 0.000000 0.000000
vn -1.000000 0.000000 0.000000
vn -1.000000 0.000000 0.000000
vn -1.000000 0.000000 0.000000
vn -1.000000 0.000000 0.000000
vn -1.000000 0.000000 0.000000
vn -1.000000 0.000000 0.000000
vn 0.000000 0.000000 -1.000000
vn 0.000000 0.000000 -1.000000
vn 0.000000 0.000000 -1.000000
vn 0.000000 0.000000 -1.000000
vn 1.000000 0.000000 0.000000
vn 1.000000 0.000000 0.000000
vn 1.000000 0.000000 0.000000
vn 1.000000 0.000000 0.000000
vn -0.000002 0.000000 1.000000
vn -0.000002 0.000000 1.000000
vn -0.000002 0.000000 1.000000
vn -0.000002 0.000000 1.000000
vn 0.000002 0.000000 -1.000000
vn 0.000002 0.000000 -1.000000
vn 0.000002 0.000000 -1.000000
vn 0.000002 0.000000 -1.000000
vn 1.000000 0.000000 0.000000
vn 1.000000 0.000000 0.000000
vn 1.000000 0.000000 0.000000
vn 1.000000 0.000000 0.000000
vn 0.000000 0.000000 1.000000
vn 0.000000 0.000000 1.000000
vn 0.000000 0.000000 1.000000
vn 0.000000 0.000000 1.000000
vn -1.000000 0.000000 0.000000
vn -1.000000 0.000000 0.000000
vn -1.000000 0.000000 0.000000
vn -1.000000 0.000000 0.000000
vn 0.000000 0.000000 1.000000
vn 0.000000 0.000000 1.000000
vn 0.000000 0.000000 1.000000
vn 0.000000 0.000000 1.000000
vn -1.000000 0.000000 0.000000
vn -1.000000 0.000000 0.000000
vn -1.000000 0.000000 0.000000
vn -1.000000 0.000000 0.000000
vn -0.000002 0.000000 -1.000000
vn -0.000002 0.000000 -1.000000
vn -0.000002 0.000000 -1.000000
vn -0.000002 0.000000 -1.000000
vn 1.000000 0.000000 0.000000
vn 1.000000 0.000000 0.000000
vn 1.000000 0.000000 0.000000
vn 1.000000 0.000000 0.000000
vn 0.000002 0.000000 1.000000
vn 0.000002 0.000000 1.000000
vn 0.000002 0.000000 1.000000
vn 0.000002 0.000000 1.000000
vn 1.000000 0.000000 0.000000
vn 1.000000 0.000000 0.000000
vn 1.000000 0.000000 0.000000
vn 1.000000 0.000000 0.000000
vn 0.000000 0.000000 -1.000000
vn 0.000000 0.000000 -1.000000
vn 0.000000 0.000000 -1.000000
vn 0.000000 0.000000 -1.000000
vn -1.000000 0.000000 0.000000
vn -1.000000 0.000000 0.000000
vn -1.000000 0.000000 0.000000
vn -1.000000 0.000000 0.000000
vn -1.000000 0.000000 0.000000
vn -1.000000 0.000000 0.000000
vn -1.000000 0.000000 0.000000
vn -1.000000 0.000000 0.000000
vn 0.000000 0.000000 1.000000
vn 0.000000 0.000000 1.000000
vn 0.000000 0.000000 1.000000
vn 0.000000 0.000000 1.000000
vn 1.000000 0.000000 0.000000
vn 1.000000 0.000000 0.000000
vn 1.000000 0.000000 0.000000
vn 1.000000 0.000000 0.000000
vn 0.000002 0.000000 -1.000000
vn 0.000002 0.000000 -1.000000
vn 0.000002 0.000000 -1.000000
vn 0.000002 0.000000 -1.000000
vn 0.000000 0.000000 1.000000
vn 0.000000 0.000000 1.000000
vn 0.000000 0.000000 1.000000
vn 0.000000 0.000000 1.000000
vn 1.000000 0.000000 0.000000
vn 1.000000 0.000000 0.000000
vn 1.000000 0.000000 0.000000
vn 1.000000 0.000000 0.000000
vn -0.000002 0.000000 -1.000000
vn -0.000002 0.000000 -1.000000
vn -0.000002 0.000000 -1.000000
vn -0.000002 0.000000 -1.000000
vn -1.000000 0.000000 0.000000
vn -1.000000 0.000000 0.000000
vn -1.000000 0.000000 0.000000
vn -1.000000 0.000000 0.000000
vn -1.000000 0.000000 0.000000
vn -1.000000 0.000000 0.000000
vn -1.000000 0.000000 0.000000
vn -1.000000 0.000000 0.000000
vn -0.000002 0.000000 1.000000
vn -0.000002 0.000000 1.000000
vn -0.000002 0.000000 1.000000
vn -0.000002 0.000000 1.000000
vn 1.000000 0.000000 0.000000
vn 1.000000 0.000000 0.000000
vn 1.000000 0.000000 0.000000
vn 1.000000 0.000000 0.000000
vn 0.000000 0.000000 -1.000000
vn 0.000000 0.000000 -1.000000
vn 0.000000 0.000000 -1.000000
vn 0.000000 0.000000 -1.000000
vn 1.000000 0.000000 0.000000
vn 1.000000 0.000000 0.000000
vn 1.000000 0.000000 0.000000
vn 1.000000 0.000000 0.000000
vn 0.000000 1.000000 0.000000
vn 0.000000 1.000000 0.000000
vn 0.000000 1.000000 0.000000
vn 0.000000 1.000000 0.000000
vn -1.000000 0.000000 0.000000
vn -1.000000 0.000000 0.000000
vn -1.000000 0.000000 0.000000
vn -1.000000 0.000000 0.000000
vn 0.000000 -1.000000 0.000000
vn 0.000000 -1.000000 0.000000
vn 0.000000 -1.000000 0.000000
vn 0.000000 -1.000000 0.000000
vn 0.000000 0.000000 -1.000000
vn 0.000000 0.000000 -1.000000
vn 0.000000 0.000000 -1.000000
vn 0.000000 0.000000 -1.000000
vn 0.000000 1.000000 0.000000
vn 0.000000 1.000000 0.000000
vn 0.000000 1.000000 0.000000
vn 0.000000 1.000000 0.000000
vn 0.000000 0.000000 1.000000
vn 0.000000 0.000000 1.000000
vn 0.000000 0.000000 1.000000
vn 0.000000 0.000000 1.000000
vn 0.000000 -1.000000 0.000000
vn 0.000000 -1.000000 0.000000
vn 0.000000 -1.000000 0.000000
vn 0.000000 -1.000000 0.000000
vn 0.000000 0.000000 -1.000000
vn 0.000000 0.000000 -1.000000
vn 0.000000 0.000000 -1.000000
vn 0.000000 0.000000 -1.000000
vn 0.000000 1.000000 0.000000
vn 0.000000 1.000000 0.000000
vn 0.000000 1.000000 0.000000
vn 0.000000 1.000000 0.000000
vn 0.000000 0.000000 1.000000
vn 0.000000 0.000000 1.000000
vn 0.000000 0.000000 1.000000
vn 0.000000 0.000000 1.000000
vn 0.000000 -1.000000 0.000000
vn 0.000000 -1.000000 0.000000
vn 0.000000 -1.000000 0.000000
vn 0.000000 -1.000000 0.000000
s 1
g table1 pCube1
usemtl initialShadingGroup
f 51/74/25 40/61/26 33/54/27 50/73/28
s 2
f 50/73/29 33/54/30 57/81/31 58/82/32
s 3
f 55/79/33 36/57/34 37/58/35 54/78/36
s 4
f 61/87/37 62/88/38 40/62/39 51/75/40
s 5
f 10/16/41 65/92/42 66/94/43 12/18/44
s 6
f 60/85/45 9/15/46 11/17/47 59/83/48
f 72/101/49 18/31/50 17/29/51 71/99/52
s off
f 81/113/53 82/114/54 83/115/55 84/116/56
s 5
f 20/36/57 19/34/58 77/108/59 78/110/60
s 2
f 56/80/61 35/56/62 69/97/63 70/98/64
s 6
f 18/31/50 22/39/65 21/37/66 17/29/51
s 4
f 53/77/67 38/59/68 39/60/69 52/76/70
s 5
f 24/44/71 23/42/72 19/34/58 20/36/57
s 2
f 56/80/61 49/72/73 34/55/74 35/56/62
f 42/64/75 12/18/76 66/93/77 67/95/78
f 48/71/79 41/63/80 24/43/81 20/35/82
f 79/111/83 48/71/79 20/35/82 78/109/84
s 3
f 46/69/85 47/70/86 14/20/87 16/22/88
s 4
f 45/68/89 76/106/90 77/107/91 19/33/92
f 44/67/93 45/68/89 19/33/92 23/41/94
f 43/66/95 64/90/96 65/91/97 10/24/98
s 1
f 42/64/99 43/65/100 10/16/101 12/18/102
s 2
f 33/54/30 25/45/103 68/96/104 57/81/31
f 35/56/62 34/55/74 26/46/105 27/47/106
f 80/112/107 69/97/63 35/56/62 27/47/106
s 3
f 37/58/35 36/57/34 28/48/108 29/49/109
s 4
f 38/59/68 74/104/110 75/105/111 30/50/112
f 39/60/69 38/59/68 30/50/112 31/51/113
f 40/62/39 62/88/38 63/89/114 32/53/115
s 1
f 33/54/27 40/61/26 32/52/116 25/45/117
s 2
f 25/45/103 42/64/75 67/95/78 68/96/104
s 1
f 25/45/117 32/52/116 43/65/100 42/64/99
s 4
f 32/53/115 63/89/114 64/90/96 43/66/95
f 31/51/113 30/50/112 45/68/89 44/67/93
s off
f 86/117/118 85/118/119 87/119/120 88/120/121
s 3
f 29/49/109 28/48/108 47/70/86 46/69/85
s 2
f 80/112/107 27/47/106 48/71/79 79/111/83
f 27/47/106 26/46/105 41/63/80 48/71/79
f 11/17/122 50/73/29 58/82/32 59/84/123
s 1
f 9/15/124 51/74/25 50/73/28 11/17/125
s 4
f 60/86/126 61/87/37 51/75/40 9/23/127
f 18/32/128 53/77/67 52/76/70 22/40/129
f 72/102/130 73/103/131 53/77/67 18/32/128
s 3
f 13/19/132 55/79/33 54/78/36 15/21/133
s 2
f 17/30/134 56/80/61 70/98/64 71/100/135
f 21/38/136 49/72/73 56/80/61 17/30/134
f 58/82/32 57/81/31 34/55/74 49/72/73
f 59/84/123 58/82/32 49/72/73 21/38/136
s 6
f 22/39/65 60/85/45 59/83/48 21/37/66
s 4
f 22/40/129 52/76/70 61/87/37 60/86/126
s off
f 89/121/137 90/122/138 91/123/139 92/124/140
s 4
f 63/89/114 62/88/38 39/60/69 31/51/113
s off
f 94/125/141 93/126/142 95/127/143 96/128/144
s 4
f 65/91/97 64/90/96 44/67/93 23/41/94
s 5
f 66/94/43 65/92/42 23/42/72 24/44/71
s 2
f 67/95/78 66/93/77 24/43/81 41/63/80
f 68/96/104 67/95/78 41/63/80 26/46/105
f 57/81/31 68/96/104 26/46/105 34/55/74
f 70/98/64 69/97/63 36/57/145 55/79/146
f 71/100/135 70/98/64 55/79/146 13/19/147
s 6
f 15/27/148 72/101/49 71/99/52 13/28/149
s 4
f 15/21/150 54/78/151 73/103/131 72/102/130
f 54/78/151 37/58/152 74/104/110 73/103/131
f 75/105/111 74/104/110 37/58/152 29/49/153
f 76/106/90 75/105/111 29/49/153 46/69/154
f 77/107/91 76/106/90 46/69/154 16/22/155
s 5
f 78/110/60 77/108/59 16/25/156 14/26/157
s 2
f 47/70/158 79/111/83 78/109/84 14/20/159
f 28/48/160 80/112/107 79/111/83 47/70/158
f 36/57/145 69/97/63 80/112/107 28/48/160
s 18
f 73/103/161 74/104/162 103/135/163 104/136/164
s off
f 74/104/165 38/59/166 102/134/167 103/135/168
f 38/59/169 53/77/170 101/133/171 102/134/172
s 19
f 53/77/173 73/103/174 104/136/175 101/133/176
s off
f 30/50/177 75/105/178 125/157/179 126/158/180
s 20
f 75/105/181 76/106/182 128/160/183 125/157/184
s 21
f 76/106/185 45/68/186 127/159/187 128/160/188
s 22
f 45/68/189 30/50/190 126/158/191 127/159/192
s off
f 52/76/193 39/60/194 112/144/195 109/141/196
f 39/60/197 62/88/198 111/143/199 112/144/200
s 23
f 62/88/201 61/87/202 110/142/203 111/143/204
s 24
f 61/87/205 52/76/206 109/141/207 110/142/208
s 25
f 64/90/209 63/89/210 117/149/211 118/150/212
s off
f 63/89/213 31/51/214 120/152/215 117/149/216
s 26
f 31/51/217 44/67/218 119/151/219 120/152/220
s 27
f 44/67/221 64/90/222 118/150/223 119/151/224
s off
f 98/130/225 97/129/226 84/116/227 83/115/228
f 99/131/229 98/130/230 83/115/231 82/114/232
s 18
f 100/132/233 99/131/234 82/114/235 81/113/236
s 19
f 97/129/237 100/132/238 81/113/239 84/116/240
s 18
f 104/136/164 103/135/163 99/131/234 100/132/233
s 19
f 101/133/176 104/136/175 100/132/238 97/129/237
s 24
f 106/138/241 105/137/242 89/121/243 92/124/244
s 23
f 107/139/245 106/138/246 92/124/247 91/123/248
s off
f 108/140/249 107/139/250 91/123/251 90/122/252
f 105/137/253 108/140/254 90/122/255 89/121/256
s 24
f 110/142/208 109/141/207 105/137/242 106/138/241
s 23
f 111/143/204 110/142/203 106/138/246 107/139/245
s 25
f 114/146/257 113/145/258 93/126/259 94/125/260
s 27
f 115/147/261 114/146/262 94/125/263 96/128/264
s 26
f 116/148/265 115/147/266 96/128/267 95/127/268
s off
f 113/145/269 116/148/270 95/127/271 93/126/272
s 25
f 118/150/212 117/149/211 113/145/258 114/146/257
s 27
f 119/151/224 118/150/223 114/146/262 115/147/261
s 26
f 120/152/220 119/151/219 115/147/266 116/148/265
s off
f 122/154/273 121/153/274 85/118/275 86/117/276
s 22
f 123/155/277 122/154/278 86/117/279 88/120/280
s 21
f 124/156/281 123/155/282 88/120/283 87/119/284
s 20
f 121/153/285 124/156/286 87/119/287 85/118/288
s 22
f 127/159/192 126/158/191 122/154/278 123/155/277
s 21
f 128/160/188 127/159/187 123/155/282 124/156/281
s 20
f 125/157/184 128/160/183 124/156/286 121/153/285
s off
f 98/130/289 102/134/290 112/144/291 108/140/292
f 102/134/293 101/133/294 109/141/295 112/144/296
f 101/133/297 97/129/298 105/137/299 109/141/300
f 97/129/301 98/130/302 108/140/303 105/137/304
f 108/140/305 112/144/306 120/152/307 116/148/308
f 112/144/309 111/143/310 117/149/311 120/152/312
f 111/143/313 107/139/314 113/145/315 117/149/316
f 107/139/317 108/140/318 116/148/319 113/145/320
f 99/131/321 103/135/322 125/157/323 121/153/324
f 103/135/325 102/134/326 126/158/327 125/157/328
f 102/134/329 98/130/330 122/154/331 126/158/332
f 98/130/333 99/131/334 121/153/335 122/154/336
